<svg xmlns="http://www.w3.org/2000/svg" width="193.5" height="35.969" viewBox="0 0 193.5 35.969">
  <metadata><?xpacket begin="﻿" id="W5M0MpCehiHzreSzNTczkc9d"?>
<x:xmpmeta xmlns:x="adobe:ns:meta/" x:xmptk="Adobe XMP Core 5.6-c138 79.159824, 2016/09/14-01:09:01        ">
   <rdf:RDF xmlns:rdf="http://www.w3.org/1999/02/22-rdf-syntax-ns#">
      <rdf:Description rdf:about=""/>
   </rdf:RDF>
</x:xmpmeta>
                                                                                                    
                                                                                                    
                                                                                                    
                                                                                                    
                                                                                                    
                                                                                                    
                                                                                                    
                                                                                                    
                                                                                                    
                                                                                                    
                                                                                                    
                                                                                                    
                                                                                                    
                                                                                                    
                                                                                                    
                                                                                                    
                                                                                                    
                                                                                                    
                                                                                                    
                                                                                                    
                           
<?xpacket end="w"?></metadata>
<defs>
    <style>
      .cls-1 {
        fill: #151716;
        fill-rule: evenodd;
      }
    </style>
  </defs>
  <path id="Капюшоп_копия" data-name="Капюшоп копия" class="cls-1" d="M106.486,219.8q2.622-3.6,7.2-9.333,4.452-5.733,5.307-6.588,0.487-.609-0.732-1.1-0.427-.121-0.915-0.244l-0.366-.061h-0.244a7.188,7.188,0,0,0-2.074-.061,3.049,3.049,0,0,0-1.891.854L111,205.345l-1.708,2.074q-0.672.855-1.647,2.318l-0.793,1.22L106,212.177l-1.647,2.135q-0.061-3.416-.061-10.187,0-.671-1.4-0.915a7.98,7.98,0,0,0-1.037-.183h-1.525a7.8,7.8,0,0,0-1.1.183q-1.4.244-1.4,0.915,0,5.613.122,16.592t0.122,16.47q0,0.732,1.4.976a7.648,7.648,0,0,0,1.1.183h1.525a7.815,7.815,0,0,0,1.037-.183q1.4-.243,1.4-0.976V231.27q-0.062-3.965-.061-6.039,1.037,1.1,2.318,2.379l1.159,1.159,1.1,1.1q2.5,2.441,2.867,2.928,4.392,5.247,7.381,4.88a3.145,3.145,0,0,0,1.769-.854,2.667,2.667,0,0,0,.549-0.61l0.183-.244,0.122-.183q-0.489-.487-1.4-1.4a12.208,12.208,0,0,1-.915-0.854l-0.976-.976-4.575-4.575a87,87,0,0,1-7.564-8.174h0Zm46.13,2.2a7.059,7.059,0,0,0-.488,1.647q-0.244.976-.488,1.769-0.366,1.1-.732,2.013a14.362,14.362,0,0,1-2.135,3.9A4.143,4.143,0,0,1,145.6,233.1a2.367,2.367,0,0,1-2.5-1.342,5.191,5.191,0,0,1-.488-3.111,20.2,20.2,0,0,1,.854-4.636,3.34,3.34,0,0,0-1.22-.671,5.854,5.854,0,0,0-3.782.488l-0.244,1.342a14.644,14.644,0,0,0-.244,3.111,20.22,20.22,0,0,1-2.013,5.063q-2.2,2.745-4.087,1.83a4.741,4.741,0,0,1-2.318-3.233,5.865,5.865,0,0,1-.183-1.037l-0.061-1.037v-0.122a16.645,16.645,0,0,1,0-2.867l0.183-1.464,0.183-1.4A12.6,12.6,0,0,1,132,218.277h0.122a2.159,2.159,0,0,1,.854-0.854,1.346,1.346,0,0,1,1.83.244q1.281,2.319.183,3.9-0.427.549,0.61,0.915a3.2,3.2,0,0,0,.793.183l0.305,0.061h0.183a5.193,5.193,0,0,0,1.769.061,2.1,2.1,0,0,0,1.586-.732,4.038,4.038,0,0,0,.305-3.965,4.908,4.908,0,0,0-2.562-2.989,9.592,9.592,0,0,0-7.076-.366,7.126,7.126,0,0,0-3.66,2.379,13.951,13.951,0,0,0-3.05,7.2,21,21,0,0,0,.183,8.723,6.192,6.192,0,0,0,3.782,4.209,11.845,11.845,0,0,0,5.795.976,8.9,8.9,0,0,0,5.307-1.952,3.737,3.737,0,0,0,.671-0.976q1.83,2.2,5.49,1.952a8.645,8.645,0,0,0,5.124-2.379q2.317-2.562,4.514-10.553c0.081,0,.1-0.122.061-0.366a3.512,3.512,0,0,0-.244-0.793,2.312,2.312,0,0,0-.854-0.793,2.676,2.676,0,0,0-1.4-.366h0Zm24.255,0a1.033,1.033,0,0,0-.061.305l-0.061.244-0.061.244a2.186,2.186,0,0,1-.183.549q-0.183.793-.427,1.586-0.306.977-.61,1.83a18.716,18.716,0,0,1-1.83,3.721,5.475,5.475,0,0,1-2.623,2.379h-0.061l-0.122.061a1.5,1.5,0,0,1-1.281-.305,2.273,2.273,0,0,1-.549-0.976q-0.123-2.073-.122-3.9l0.061-1.464V222a18.166,18.166,0,0,0-.183-2.684l-0.183-.976-0.244-.976a4.855,4.855,0,0,0-.915-1.891,3.888,3.888,0,0,0-2.379-1.281,14.613,14.613,0,0,0-1.464-.183h-1.342a6.065,6.065,0,0,0-5.307,4.148l-0.61,1.525v-5.612q0-.609-1.159-0.854-0.427-.06-0.976-0.122h-1.22q-0.549.061-.915,0.122-1.221.245-1.22,0.854l0.183,20.313v2.2q0,0.611,1.22.854,0.366,0.061.915,0.122h1.22q0.549-.06.976-0.122,1.158-.243,1.159-0.854,0-2.5-.061-3.9,0.121-.609.671-2.928l0.183-.915,0.183-.854q0.183-.853.244-1.1a35.558,35.558,0,0,1,1.586-5.185,12.719,12.719,0,0,1,2.013-3.9,1.565,1.565,0,0,1,.366-0.183,1.084,1.084,0,0,1,.488-0.122,1.618,1.618,0,0,1,1.037,1.037,22.188,22.188,0,0,1,.305,2.5,45.908,45.908,0,0,1,.244,5v5.185a16.771,16.771,0,0,0,.061,1.769,0.357,0.357,0,0,1,.061.244,4.4,4.4,0,0,0,1.647,3.111l-0.061.061,0.366,0.183a2.1,2.1,0,0,0,.854.427,3.126,3.126,0,0,0,.732.183,3.224,3.224,0,0,0,.732.061h0.061a8.713,8.713,0,0,0,1.464,0,8.393,8.393,0,0,0,5.124-2.318q2.318-2.622,4.514-10.614a4.219,4.219,0,0,0-.305-1.159A2.132,2.132,0,0,0,176.871,222h0Zm22.719,7.991a9.107,9.107,0,0,1-1.159,2.257q-1.892,1.708-3.538.61a6.329,6.329,0,0,1-2.257-3.355,12.337,12.337,0,0,1,.793-8.662,6.7,6.7,0,0,1,2.074-2.257q2.379-1.4,4.148,2.684l0.244,0.488a9.306,9.306,0,0,1,.366,2.074,14.008,14.008,0,0,1-.671,6.161h0ZM188,232a7.157,7.157,0,0,0,4.331,3.9,10.343,10.343,0,0,0,8.845-.671,8.31,8.31,0,0,0,3.6-4.514,14.765,14.765,0,0,0,1.1-5.978,9.943,9.943,0,0,0-1.83-5.795,6.124,6.124,0,0,0-3.538-2.44,10.108,10.108,0,0,0-3.782-.427,8.124,8.124,0,0,0-1.708.183,7.458,7.458,0,0,0-2.44.3,6.94,6.94,0,0,0-4.331,3.721,13.389,13.389,0,0,0-1.159,3.538h-5.124q-0.672,0-1.586.061l-0.061-4.209v-5.612q0-.609-1.159-0.854-0.427-.06-0.976-0.122h-1.22q-0.549.061-.915,0.122-1.221.245-1.22,0.854l0.183,20.313v2.2q0,0.611,1.22.854,0.366,0.061.915,0.122h1.22q0.549-.06.976-0.122,1.158-.243,1.159-0.854,0-2.5-.061-3.9l-0.061-4.575h1.769l2.074-.061H186.9A12.685,12.685,0,0,0,188,232h0Zm45.871,4.331-0.061.061,0.366,0.183a2.1,2.1,0,0,0,.854.427,3.126,3.126,0,0,0,.732.183,3.224,3.224,0,0,0,.732.061h0.061a8.713,8.713,0,0,0,1.464,0,8.393,8.393,0,0,0,5.124-2.318q2.317-2.622,4.514-10.614a4.219,4.219,0,0,0-.305-1.159A2.132,2.132,0,0,0,245.217,222a1.033,1.033,0,0,0-.061.305l-0.061.244-0.061.244q-0.061.306-.122,0.549-0.245.793-.427,1.586-0.306.977-.61,1.83a18.716,18.716,0,0,1-1.83,3.721,5.475,5.475,0,0,1-2.623,2.379h-0.061a0.248,0.248,0,0,1-.183.061,1.364,1.364,0,0,1-1.586-.793,3.024,3.024,0,0,1-.305-0.732l-0.061-.305V230.9q0-5.062.061-7.991v-8.479q0-.609-1.159-0.854-0.428-.06-0.976-0.122h-1.22q-0.549.061-.915,0.122-1.221.244-1.22,0.854,0,5.49.183,8.845,0.06,1.83.122,4.331a13.271,13.271,0,0,1-2.013,3.416,5.062,5.062,0,0,1-3.172,2.074,0.248,0.248,0,0,1-.183.061,0.819,0.819,0,0,0-.427-0.061q-0.672,0-1.037-2.867a45.981,45.981,0,0,1-.366-6.344q0.06-1.647.061-4.636a20.277,20.277,0,0,1,.122-2.257v-0.427l0.061-.488v-1.342q0-.609-1.159-0.854-0.427-.06-0.976-0.122h-1.22q-0.549.061-.915,0.122-1.221.245-1.22,0.854,0,1.038-.061,2.074t-0.061,2.135v2.928a29.716,29.716,0,0,1-.122,2.989q-0.061.793-.061,1.647v1.464q-1.1,5.673-3.172,5.551-1.77-.121-2.623-3.6v-0.122q-0.123-1.037-.183-2.379v-1.159l-0.061-1.22q-0.061-3.354-.061-10,0-.609-1.159-0.854a7.071,7.071,0,0,0-.976-0.061H209.9a5.79,5.79,0,0,0-.915.061q-1.221.245-1.22,0.854v5.673q0,3.234.122,5.673,0.122,2.562.366,5.124a7.811,7.811,0,0,0,.793,3.111q0.915,1.892,3.843,2.44a12.192,12.192,0,0,0,4.7-.061,9.141,9.141,0,0,0,3.172-1.281,5.608,5.608,0,0,0,3.233,1.525,9.191,9.191,0,0,0,1.525.122l1.22-.122a8.645,8.645,0,0,0,5.124-2.379,5.846,5.846,0,0,0,.61-0.732,3.766,3.766,0,0,0,1.4,2.2h0Zm26.155-17.385a6.124,6.124,0,0,0-3.538-2.44,10.108,10.108,0,0,0-3.782-.427,8.124,8.124,0,0,0-1.708.183,7.458,7.458,0,0,0-2.44.3,6.94,6.94,0,0,0-4.331,3.721,14.5,14.5,0,0,0-1.4,5.734A12.4,12.4,0,0,0,243.983,232a7.157,7.157,0,0,0,4.331,3.9,10.343,10.343,0,0,0,8.845-.671,8.31,8.31,0,0,0,3.6-4.514,14.765,14.765,0,0,0,1.1-5.978,9.943,9.943,0,0,0-1.83-5.795h0Zm-4.453,11.041a9.107,9.107,0,0,1-1.159,2.257q-1.892,1.708-3.538.61a6.329,6.329,0,0,1-2.257-3.355,12.337,12.337,0,0,1,.793-8.662,6.7,6.7,0,0,1,2.074-2.257q2.379-1.4,4.148,2.684l0.244,0.488a9.306,9.306,0,0,1,.366,2.074,14.008,14.008,0,0,1-.671,6.161h0Zm33.3-7.991a1.033,1.033,0,0,0-.061.305l-0.061.244-0.061.244a2.186,2.186,0,0,1-.183.549q-0.183.793-.427,1.586-0.306.977-.61,1.83a18.716,18.716,0,0,1-1.83,3.721,5.475,5.475,0,0,1-2.623,2.379h-0.061l-0.122.061a1.5,1.5,0,0,1-1.281-.305,2.273,2.273,0,0,1-.549-0.976q-0.123-2.073-.122-3.9l0.061-1.464V222a18.166,18.166,0,0,0-.183-2.684l-0.183-.976-0.244-.976a4.855,4.855,0,0,0-.915-1.891,3.888,3.888,0,0,0-2.379-1.281,14.613,14.613,0,0,0-1.464-.183h-1.342a6.065,6.065,0,0,0-5.307,4.148l-0.61,1.525v-5.612q0-.609-1.159-0.854-0.427-.06-0.976-0.122h-1.22q-0.549.061-.915,0.122-1.221.245-1.22,0.854l0.183,20.313v2.2q0,0.611,1.22.854,0.366,0.061.915,0.122h1.22q0.549-.06.976-0.122,1.158-.243,1.159-0.854,0-2.5-.061-3.9,0.122-.609.671-2.928l0.183-.915,0.183-.854q0.183-.853.244-1.1a35.558,35.558,0,0,1,1.586-5.185,12.719,12.719,0,0,1,2.013-3.9,1.565,1.565,0,0,1,.366-0.183,1.084,1.084,0,0,1,.488-0.122,1.618,1.618,0,0,1,1.037,1.037,22.188,22.188,0,0,1,.305,2.5,45.908,45.908,0,0,1,.244,5v5.185a16.771,16.771,0,0,0,.061,1.769,0.357,0.357,0,0,1,.061.244,4.4,4.4,0,0,0,1.647,3.111l-0.061.061,0.366,0.183a2.1,2.1,0,0,0,.854.427,3.126,3.126,0,0,0,.732.183,3.224,3.224,0,0,0,.732.061h0.061a8.713,8.713,0,0,0,1.464,0,8.393,8.393,0,0,0,5.124-2.318q2.317-2.622,4.514-10.614a4.219,4.219,0,0,0-.305-1.159A2.132,2.132,0,0,0,288.871,222h0Z" transform="translate(-97.813 -202.375)"/>
</svg>
